<?xml version="1.0" encoding="UTF-8" standalone="no"?>
<!DOCTYPE svg PUBLIC "-//W3C//DTD SVG 1.1//EN"
 "http://www.w3.org/Graphics/SVG/1.1/DTD/svg11.dtd">
<!-- Generated by graphviz version 2.44.1 (20200629.0800)
 -->
<!-- Pages: 1 -->
<svg width="119pt" height="137pt"
 viewBox="0.00 0.00 118.98 136.95" xmlns="http://www.w3.org/2000/svg" xmlns:xlink="http://www.w3.org/1999/xlink">
<g id="graph0" class="graph" transform="scale(1 1) rotate(0) translate(4 132.95)">
<polygon fill="white" stroke="transparent" points="-4,4 -4,-132.95 114.98,-132.95 114.98,4 -4,4"/>
<!-- A -->
<g id="node1" class="node">
<title>A</title>
<polygon fill="lightgray" stroke="black" points="23,-128.95 0,-128.95 0,-110.95 23,-110.95 23,-128.95"/>
<text text-anchor="middle" x="11.5" y="-117.75" font-family="Times New Roman,serif" font-size="9.00">A</text>
</g>
<!-- B -->
<g id="node2" class="node">
<title>B</title>
<polygon fill="lightgray" stroke="black" points="64,-128.95 41,-128.95 41,-110.95 64,-110.95 64,-128.95"/>
<text text-anchor="middle" x="52.5" y="-117.75" font-family="Times New Roman,serif" font-size="9.00">B</text>
</g>
<!-- A XOR B -->
<g id="node4" class="node">
<title>A XOR B</title>
<ellipse fill="lightblue" stroke="black" cx="73.5" cy="-37.48" rx="37.45" ry="37.45"/>
<text text-anchor="middle" x="73.5" y="-35.28" font-family="Times New Roman,serif" font-size="9.00">A XOR B</text>
</g>
<!-- B&#45;&gt;A XOR B -->
<g id="edge1" class="edge">
<title>B&#45;&gt;A XOR B</title>
<path fill="none" stroke="green" stroke-width="0.32" d="M54.59,-110.94C56.3,-104.37 58.88,-94.5 61.58,-84.14"/>
<polygon fill="green" stroke="green" stroke-width="0.32" points="65.05,-84.7 64.19,-74.14 58.28,-82.94 65.05,-84.7"/>
</g>
<!-- &#45;3 -->
<g id="node3" class="node">
<title>&#45;3</title>
<polygon fill="lightgray" stroke="black" points="106.5,-128.95 82.5,-128.95 82.5,-110.95 106.5,-110.95 106.5,-128.95"/>
<text text-anchor="middle" x="94.5" y="-117.75" font-family="Times New Roman,serif" font-size="9.00">&#45;3</text>
</g>
<!-- &#45;3&#45;&gt;A XOR B -->
<g id="edge2" class="edge">
<title>&#45;3&#45;&gt;A XOR B</title>
<path fill="none" stroke="red" stroke-width="0.37" d="M92.41,-110.94C90.7,-104.37 88.12,-94.5 85.42,-84.14"/>
<polygon fill="red" stroke="red" stroke-width="0.37" points="88.72,-82.94 82.81,-74.14 81.95,-84.7 88.72,-82.94"/>
</g>
</g>
</svg>
